<?xml version="1.0" encoding="utf-8"?>
<!-- Generator: Adobe Illustrator 16.0.2, SVG Export Plug-In . SVG Version: 6.00 Build 0)  -->
<!DOCTYPE svg PUBLIC "-//W3C//DTD SVG 1.1//EN" "http://www.w3.org/Graphics/SVG/1.1/DTD/svg11.dtd">
<svg version="1.1" id="Layer_1" xmlns="http://www.w3.org/2000/svg" xmlns:xlink="http://www.w3.org/1999/xlink" x="0px" y="0px"
	 width="18px" height="18px" viewBox="0 0 18 18" enable-background="new 0 0 18 18" xml:space="preserve">
<path fill="#BBCDEA" d="M15,13H4c-0.551,0-1-0.448-1-1V6c0-0.551,0.449-1,1-1h11c0,0-0.375-2-1.563-2S4,3,4,3C2.346,3,1,4.346,1,6v6
	c0,1.654,1.346,3,3,3c0,0,8.125,0,9.438,0S15,13,15,13z"/>
<rect x="7.5" y="6.375" fill="#274A84" width="1.938" height="1.938"/>
<rect x="11.5" y="6.375" fill="#274A84" width="1.938" height="1.938"/>
<rect x="15.5" y="6.375" fill="#274A84" width="1.938" height="1.938"/>
<rect x="7.5" y="10.375" fill="#274A84" width="1.938" height="1.938"/>
<rect x="11.5" y="10.375" fill="#274A84" width="1.938" height="1.938"/>
<rect x="15.5" y="10.375" fill="#274A84" width="1.938" height="1.938"/>
</svg>
