<?xml version="1.0" encoding="utf-8"?>
<!-- Generator: Adobe Illustrator 16.0.2, SVG Export Plug-In . SVG Version: 6.00 Build 0)  -->
<!DOCTYPE svg PUBLIC "-//W3C//DTD SVG 1.1//EN" "http://www.w3.org/Graphics/SVG/1.1/DTD/svg11.dtd">
<svg version="1.1" id="Layer_1" xmlns="http://www.w3.org/2000/svg" xmlns:xlink="http://www.w3.org/1999/xlink" x="0px" y="0px"
	 width="32px" height="32px" viewBox="0 0 32 32" enable-background="new 0 0 32 32" xml:space="preserve">
<path fill="#486078" d="M25,19v-2v-1h-8v-3h4V9h-9v4h4v3H8v1v2H5v4h7v-4H9v-2h7v2h-3v4h7v-4h-3v-2h7v2h-3v4h7v-4H25z M13,12v-2h7v2
	H13z M11,20v2H6v-2h2h1H11z M19,20v2h-5v-2h2h1H19z M27,22h-5v-2h2h1h2V22z"/>
</svg>
