<?xml version="1.0" encoding="utf-8"?>
<!-- Generator: Adobe Illustrator 16.0.2, SVG Export Plug-In . SVG Version: 6.00 Build 0)  -->
<!DOCTYPE svg PUBLIC "-//W3C//DTD SVG 1.1//EN" "http://www.w3.org/Graphics/SVG/1.1/DTD/svg11.dtd">
<svg version="1.1" id="Layer_1" xmlns="http://www.w3.org/2000/svg" xmlns:xlink="http://www.w3.org/1999/xlink" x="0px" y="0px"
	 width="18px" height="18px" viewBox="0 0 18 18" enable-background="new 0 0 18 18" xml:space="preserve">
<path fill="#BBCDEA" d="M13.559,3H8v2h5.559C14.009,5,14,5.332,14,5.856v6.664c0,0.525,0.009,0.48-0.441,0.48H4.72
	C4.27,13,4,13.045,4,12.52V10H2v2.52C2,14.094,3.22,15,4.72,15h8.839c1.5,0,2.441-0.906,2.441-2.48V5.856
	C16,4.281,15.059,3,13.559,3z"/>
<polygon fill="#274A84" points="10.818,5.573 10.818,5.573 8.893,7.498 6.128,4.733 4.334,6.527 7.1,9.292 5.203,11.188 
	11.009,11.407 "/>
<rect x="3.241" y="3.321" transform="matrix(-0.7071 -0.7071 0.7071 -0.7071 3.9083 10.7976)" fill="#274A84" width="1.899" height="2.537"/>
<rect x="2.037" y="1.643" transform="matrix(-0.7071 -0.7071 0.7071 -0.7071 2.2303 6.7456)" fill="#274A84" width="0.949" height="2.537"/>
</svg>
