<?xml version="1.0" encoding="utf-8"?>
<!-- Generator: Adobe Illustrator 16.0.2, SVG Export Plug-In . SVG Version: 6.00 Build 0)  -->
<!DOCTYPE svg PUBLIC "-//W3C//DTD SVG 1.1//EN" "http://www.w3.org/Graphics/SVG/1.1/DTD/svg11.dtd">
<svg version="1.1" id="Layer_1" xmlns="http://www.w3.org/2000/svg" xmlns:xlink="http://www.w3.org/1999/xlink" x="0px" y="0px"
	 width="32px" height="32px" viewBox="0 0 32 32" enable-background="new 0 0 32 32" xml:space="preserve">
<g>
	<g>
		<path fill="#486078" d="M19.295,24.098c-1.466,0.708-2.832,0.961-4.576,0.961c-4.172,0-7.787-3.009-7.787-7.939
			c0-5.158,3.691-9.658,9.355-9.658c4.45,0,7.509,3.084,7.509,7.307c0,3.742-2.099,6.018-4.652,6.018
			c-1.112,0-1.997-0.632-2.048-2.073H17.02c-0.834,1.391-1.972,2.073-3.388,2.073c-1.568,0-2.807-1.214-2.807-3.236
			c0-3.11,2.376-5.941,5.967-5.941c1.112,0,2.226,0.252,2.883,0.582l-0.81,4.626c-0.303,1.694-0.075,2.479,0.683,2.479
			c1.188,0.05,2.579-1.492,2.579-4.4c0-3.489-2.149-6.043-6.068-6.043c-3.995,0-7.408,3.11-7.408,8.091c0,4.222,2.73,6.7,6.473,6.7
			c1.365,0,2.731-0.278,3.742-0.835L19.295,24.098z M17.449,13.453c-0.253-0.076-0.581-0.152-1.011-0.152
			c-1.921,0-3.438,1.871-3.438,4.02c0,1.037,0.48,1.745,1.416,1.745c1.188,0,2.326-1.518,2.579-3.009L17.449,13.453z"/>
	</g>
</g>
</svg>
