<?xml version="1.0" encoding="utf-8"?>
<!-- Generator: Adobe Illustrator 16.0.2, SVG Export Plug-In . SVG Version: 6.00 Build 0)  -->
<!DOCTYPE svg PUBLIC "-//W3C//DTD SVG 1.1//EN" "http://www.w3.org/Graphics/SVG/1.1/DTD/svg11.dtd">
<svg version="1.1" id="Layer_1" xmlns="http://www.w3.org/2000/svg" xmlns:xlink="http://www.w3.org/1999/xlink" x="0px" y="0px"
	 width="18px" height="18px" viewBox="0 0 18 18" enable-background="new 0 0 18 18" xml:space="preserve">
<linearGradient id="SVGID_1_" gradientUnits="userSpaceOnUse" x1="9.4995" y1="11.25" x2="9.4995" y2="26.6331">
	<stop  offset="0" style="stop-color:#FFFFFF"/>
	<stop  offset="1" style="stop-color:#919FBE"/>
</linearGradient>
<polygon fill="url(#SVGID_1_)" stroke="#919FBE" stroke-miterlimit="10" points="10.551,0.5 2.5,0.5 2.5,17.5 16.5,17.5 16.5,5 "/>
<polyline fill="#919FBE" points="10,0 10,5 16.083,5 10.313,-0.041 "/>
<linearGradient id="SVGID_2_" gradientUnits="userSpaceOnUse" x1="9.5088" y1="10.7754" x2="9.5088" y2="25.8062">
	<stop  offset="0" style="stop-color:#FFFFFF"/>
	<stop  offset="1" style="stop-color:#000000"/>
</linearGradient>
<circle fill="url(#SVGID_2_)" stroke="#B6B5B4" stroke-miterlimit="10" cx="9.509" cy="11.366" r="5.116"/>
<g>
	<path fill="#0660CE" d="M11.119,14.804H8.036V14.48c0.084-0.005,0.167-0.013,0.249-0.022c0.082-0.009,0.151-0.022,0.21-0.043
		c0.104-0.036,0.177-0.087,0.219-0.153c0.042-0.065,0.064-0.154,0.064-0.264v-2.573c0-0.103-0.026-0.193-0.079-0.271
		c-0.052-0.079-0.117-0.141-0.195-0.188c-0.059-0.035-0.147-0.069-0.266-0.103c-0.119-0.031-0.227-0.052-0.324-0.061v-0.323
		l2.39-0.115l0.074,0.067v3.511c0,0.104,0.024,0.19,0.073,0.264c0.049,0.072,0.119,0.125,0.21,0.161
		c0.064,0.026,0.136,0.05,0.214,0.07c0.079,0.021,0.159,0.035,0.244,0.044V14.804z M10.407,8.771c0,0.224-0.095,0.415-0.285,0.573
		C9.931,9.502,9.706,9.581,9.446,9.581c-0.263,0-0.49-0.079-0.68-0.236C8.575,9.187,8.48,8.996,8.48,8.771s0.095-0.416,0.286-0.575
		c0.19-0.159,0.417-0.239,0.68-0.239c0.264,0,0.49,0.08,0.678,0.239C10.313,8.356,10.407,8.547,10.407,8.771z"/>
</g>
</svg>
