<?xml version="1.0" encoding="utf-8"?>
<!-- Generator: Adobe Illustrator 16.0.2, SVG Export Plug-In . SVG Version: 6.00 Build 0)  -->
<!DOCTYPE svg PUBLIC "-//W3C//DTD SVG 1.1//EN" "http://www.w3.org/Graphics/SVG/1.1/DTD/svg11.dtd">
<svg version="1.1" id="Layer_1" xmlns="http://www.w3.org/2000/svg" xmlns:xlink="http://www.w3.org/1999/xlink" x="0px" y="0px"
	 width="18px" height="18px" viewBox="0 0 18 18" enable-background="new 0 0 18 18" xml:space="preserve">
<g>
	<path fill="#D7EBF2" d="M14.112,2.147v0.844h-1.858V2.147H5.746v0.844H3.887V2.147H2.027v13.501h13.945V2.147H14.112z"/>
	<path fill="#497AF0" d="M14.112,2.147v0.844h-1.858V2.147H5.746v0.844H3.887V2.147H2.027v2.834h13.945V2.147H14.112z"/>
	<rect x="2.957" y="5.523" fill="#9ABFD1" width="12.086" height="9.282"/>
	<rect x="6.697" y="7.21" fill="#FFFFFF" width="1.859" height="1.688"/>
	<rect x="3.865" y="7.21" fill="#FFFFFF" width="1.859" height="1.688"/>
	<rect x="9.486" y="7.21" fill="#FFFFFF" width="1.859" height="1.688"/>
	<rect x="12.275" y="7.21" fill="#FFFFFF" width="1.859" height="1.688"/>
	<rect x="3.908" y="12.273" fill="#FFFFFF" width="1.859" height="1.689"/>
	<rect x="6.697" y="12.273" fill="#FFFFFF" width="1.859" height="1.689"/>
	<rect x="9.486" y="12.273" fill="#FFFFFF" width="1.859" height="1.689"/>
	<rect x="6.697" y="9.742" fill="#FFFFFF" width="1.859" height="1.688"/>
	<rect x="8.556" y="8.898" fill="#D5310C" width="3.719" height="3.377"/>
	<rect x="12.275" y="9.742" fill="#FFFFFF" width="1.859" height="1.688"/>
	<rect x="3.908" y="9.742" fill="#FFFFFF" width="1.859" height="1.688"/>
	<rect x="12.275" y="12.313" fill="#FFFFFF" width="1.859" height="1.688"/>
</g>
</svg>
