<?xml version="1.0" encoding="utf-8"?>
<!-- Generator: Adobe Illustrator 16.0.2, SVG Export Plug-In . SVG Version: 6.00 Build 0)  -->
<!DOCTYPE svg PUBLIC "-//W3C//DTD SVG 1.1 Tiny//EN" "http://www.w3.org/Graphics/SVG/1.1/DTD/svg11-tiny.dtd">
<svg version="1.1" baseProfile="tiny" id="Layer_1" xmlns="http://www.w3.org/2000/svg" xmlns:xlink="http://www.w3.org/1999/xlink"
	 x="0px" y="0px" width="18px" height="18px" viewBox="0 0 18 18" xml:space="preserve">
<polygon fill="#BBCDEA" points="12.375,10.25 12.375,14.25 4.375,14.25 4.375,6.25 5.375,6.25 5.375,4.25 2.375,4.25 2.375,16.25 
	14.375,16.25 14.375,10.25 "/>
<g>
	<path fill="#19355E" d="M9.684,9.466H9.252C9.243,8.783,9.281,8.271,9.37,7.93c0.088-0.341,0.314-0.81,0.68-1.404
		c0.367-0.595,0.611-1.072,0.729-1.434c0.117-0.36,0.177-0.806,0.177-1.334c0-0.829-0.184-1.437-0.551-1.824
		c-0.367-0.387-0.8-0.582-1.298-0.582c-0.383,0-0.702,0.088-0.955,0.264C7.951,1.754,7.85,1.897,7.85,2.042
		c0,0.099,0.066,0.257,0.197,0.472C8.352,2.99,8.505,3.393,8.505,3.722c0,0.307-0.119,0.563-0.354,0.766
		C7.916,4.691,7.623,4.793,7.274,4.793c-0.393,0-0.723-0.123-0.989-0.369C6.018,4.18,5.885,3.857,5.885,3.458
		c0-0.729,0.358-1.369,1.074-1.922c0.716-0.552,1.717-0.828,3-0.828c1.361,0,2.401,0.286,3.118,0.857
		c0.715,0.572,1.072,1.265,1.072,2.078c0,0.584-0.184,1.125-0.551,1.623c-0.366,0.499-1.073,1.052-2.122,1.658
		c-0.697,0.406-1.158,0.769-1.38,1.086C9.874,8.329,9.734,8.814,9.684,9.466z M9.566,10.823c0.471,0,0.872,0.146,1.205,0.432
		c0.332,0.289,0.498,0.641,0.498,1.055c0,0.413-0.166,0.77-0.498,1.065c-0.333,0.295-0.734,0.442-1.205,0.442
		c-0.471,0-0.871-0.147-1.198-0.442c-0.328-0.296-0.492-0.652-0.492-1.065c0-0.414,0.164-0.766,0.492-1.055
		C8.695,10.969,9.095,10.823,9.566,10.823z"/>
</g>
</svg>
