<?xml version="1.0" encoding="utf-8"?>
<!-- Generator: Adobe Illustrator 16.0.2, SVG Export Plug-In . SVG Version: 6.00 Build 0)  -->
<!DOCTYPE svg PUBLIC "-//W3C//DTD SVG 1.1//EN" "http://www.w3.org/Graphics/SVG/1.1/DTD/svg11.dtd">
<svg version="1.1" id="Layer_1" xmlns="http://www.w3.org/2000/svg" xmlns:xlink="http://www.w3.org/1999/xlink" x="0px" y="0px"
	 width="681.5px" height="215.167px" viewBox="0 0 681.5 215.167" enable-background="new 0 0 681.5 215.167" xml:space="preserve">
<g id="Security_Area">
</g>
<g id="S.3_x005F_ENneg">
	<g id="LOGO">
		<path id="hemicycle_stylise" fill="#909599" d="M149.688,67.572l-1.798-0.026l-0.012,0.581l-0.023,1.061l1.801,0.021
			L149.688,67.572z M186.51,81.159l0.033,0.063l0.046,0.055c1.454,1.607,3.364,2.661,5.208,3.68l2.376,1.379l0.681-0.953
			l-3.195-2.614c-2.414-2-4.908-4.037-7.447-5.767c0.012-0.013,0.021-0.016,0.03-0.029l-0.865-0.786c0,0-0.105,0.102-0.208,0.201
			c-0.073-0.071-0.286-0.287-0.286-0.287c-0.271-0.312-0.723-0.824-1.361-0.836c-0.636-1.547-2.269-1.851-3.502-2.07
			c-0.813-0.145-1.582-0.283-1.845-0.676c-0.087-0.127-0.127-0.3-0.127-0.52c0-0.16,0.025-0.344,0.069-0.55l-1.079-0.417
			l-0.802,1.399l-0.155,0.274l0.135-0.46c0.271-0.912-0.302-1.497-0.68-1.882c-0.271-0.275-0.396-0.419-0.372-0.546l0.113-0.633
			l-0.642-0.054c-0.862-0.072-1.393-0.449-2.005-0.887c-0.752-0.534-1.601-1.139-3.061-1.061l-0.499,0.026
			c0.038-0.283,0.041-0.588,0.031-0.886l-0.02-0.561l-0.562-0.008c-2.004-0.027-3.793-1.903-5.23-3.411l-1.227-1.242l-0.223,0.014
			c0,0-0.92-0.012-1.296-0.017c-0.105-0.152-0.212-0.313-0.212-0.313s-0.055-0.057-0.095-0.101c0.046-0.133,0.239-0.685,0.239-0.685
			l-2.179-0.029c0,0-0.012,0.614-0.012,0.62c-0.036,0.015-0.076,0.033-0.192,0.024c-1.223-2.326-3.173-2.31-4.914-2.242
			c-1.058,0.043-2.148,0.084-3.139-0.349c-0.276-0.176-0.38-0.464-0.536-0.955l-0.314-0.844l-0.146-0.055
			c-1.573-0.997-3.388-1.618-5.145-2.217l-2.298-0.81l-0.01,0.03l-0.332-0.229c-0.77-0.529-1.626-0.924-2.454-1.306
			c-1.208-0.559-2.351-1.086-3.017-1.938l-0.33-0.423c0,0-0.715,0.466-0.833,0.542c-0.579,0.173-1.072,0.164-1.387-0.044
			c-0.255-0.169-0.406-0.475-0.449-0.912l-0.123-1.241l-1.001,1.01c-0.384,0.394-0.5,0.433-0.612,0.375l0.149,0.11l-0.711-0.467
			c0,0-0.246-0.146-0.309-0.18c0.018-0.042,0.267-0.7,0.267-0.7l-0.645-0.247l-0.627-0.176c-0.65-0.208-1.722-0.537-2.516,0.014
			c-0.315-0.552-0.827-1.461-0.827-1.461l-0.336-0.006c-0.267-0.003-0.961-0.007-1.389,0.418c-0.414-0.059-0.857-0.07-1.382-0.029
			c-1.656,0.125-2.39,0.039-2.625-0.822l-0.276-1.03l-0.717,0.789c-0.13,0.146-0.217,0.212-0.27,0.249
			c-0.066-0.088-0.25-0.348-0.25-0.348c-0.23-0.37-0.522-0.813-1.007-1.084c-0.291-0.322-0.672-0.654-1.157-0.603
			c-0.521,0.055-0.776,0.515-0.962,0.85c-0.291,0.522-0.323,0.508-0.558,0.413c-0.051-0.028-0.075-0.063-0.106-0.096
			c0.102-0.196,0.657-1.257,0.657-1.257l-1.447,0.558c-0.357,0.137-1.074-0.092-1.214-0.253c0.069,0.078,0.079,0.295-0.037,0.41
			l-0.594-0.975c-1.878,0.623-3.661-0.112-5.549-0.893c-1.245-0.514-2.523-1.019-3.833-1.118c0.001-0.182,0.006-0.382,0.006-0.382
			l-0.626,0.033c-2.344,0.125-4.238-0.23-5.957-1.117l-0.215-0.112l-0.231,0.074c-1.749,0.557-3.819,0.103-5.822-0.336
			c-1.964-0.43-3.988-0.853-5.835-0.391c-1.144-1.498-2.599-0.905-3.591-0.483c-0.971,0.414-1.356,0.453-1.697,0.14
			c0-0.078,0.008-0.73,0.008-0.73l-5.996-0.324c-3.032-0.124-6.172-0.253-9.24-0.678l-0.113-0.015l-0.031,0.013l-1.258,0.307
			c-1.145,0.35-1.867,0.519-2.268-0.098l-0.388-0.599c0,0-0.914,0.89-1.13,1.099c-1.355-0.051-3.336,0.153-5.444,0.374
			c-2.869,0.301-6.122,0.643-7.146,0.195l-0.059-0.025l-0.065-0.013c-2.488-0.491-4.854,0.071-7.367,0.666
			c-1.702,0.403-3.46,0.785-5.264,0.843c-0.009-0.014-0.013-0.051-0.02-0.063c-0.54-0.77-2.244-0.533-9.131,1.267
			c0,0-1.608,0.401-2.471,0.615c-0.074-0.708-0.392-1.308-0.695-1.805c-0.293-0.477-0.444-0.758-0.444-0.99
			c0-0.185,0.097-0.339,0.299-0.536l0.741-0.72c0,0-1.062-0.28-1.067-0.283c-0.059-0.064-0.1-0.348-0.124-0.518L18.11,36.25
			l-0.267-0.202l-0.495-0.397c-0.524-0.474-1.317-1.191-2.4-0.701l-0.473,0.214l1.749,5.517c0.923,2.716,1.8,5.284,2.23,8.274
			l0.013,0.075l0.028,0.069c1.8,4.3,3.039,8.531,4.474,13.431l0.301,1.024c0.002,0.01,0.865,3.399,0.865,3.399
			c0.503,2.255,0.99,4.384,2.48,6.493c0.849,2.309,1.304,4.268,1.742,6.159c0.493,2.131,1.005,4.337,2.072,7.049
			c0.982,2.189,1.854,4.625,2.78,7.203c0.797,2.223,1.623,4.516,2.515,6.621c-0.046,0.195-0.098,0.394-0.098,0.57
			c0,1.247,1.038,2.037,1.899,2.695c0.361,0.273,0.695,0.55,0.991,0.844c0.138,0.203,0.283,0.371,0.416,0.518
			c0.013,0.011,0.016,0.022,0.025,0.034c0.2,0.315,0.348,0.654,0.348,1.069c0,0.044-0.001,0.091-0.005,0.139l1.164,0.123
			c0.003-0.018,0.001-0.031,0.003-0.048h0.001c0.001-0.009,0.001-0.019,0.001-0.028c0.02-0.154,0.034-0.302,0.034-0.433
			c0-0.792-0.325-1.21-0.626-1.551c-0.128-0.184-0.262-0.358-0.416-0.521c-0.047-0.076-0.08-0.177-0.12-0.272
			c0.162-0.237,0.306-0.506,0.306-0.813c0-0.072-0.007-0.147-0.024-0.22c-0.124-0.549-0.627-0.779-1.072-0.981
			c-0.291-0.133-0.574-0.278-0.733-0.475c0.297,0.042,0.676,0.071,1.005-0.181l0.544-1.084l-0.19-0.059
			c-0.345-0.689-0.739-0.944-1.159-1.214c0,0-0.147-0.109-0.268-0.199c0.013-0.009,0.034-0.028,0.034-0.028l0.037-0.19
			c0.084-0.407,0.132-0.867,0.132-1.342c0-1.132-0.271-2.348-0.954-3.128c-0.288-0.328-0.644-0.527-1.03-0.661
			c0.212-0.327,0.72-1.115,0.72-1.115s-1.207-0.903-1.651-1.232c0.01-0.021,0.085-0.179,0.085-0.179l0.007-0.113
			c0.008-0.142,0.014-0.285,0.014-0.426c0-1.748-0.664-3.396-1.307-4.993c-0.475-1.183-0.924-2.3-1.084-3.392l-0.007-0.046
			l-1.956-6.32C29.358,70.432,28,65.9,25.471,60.848c-0.008-0.076-0.195-1.644-0.195-1.644c-0.065-1.073-0.163-2.09-1.087-3.093
			c0.031-0.253,0.068-0.506,0.068-0.754c0-1.956-0.947-3.75-1.867-5.498c-0.886-1.682-1.73-3.287-1.73-4.953
			c0-0.221,0.038-0.445,0.072-0.669c2.155-0.743,5.075-1.379,8.95-1.931l0.044-0.008c3.559-0.784,6.565-0.67,8.982-0.581
			c2.211,0.083,3.866,0.121,4.845-0.643c0.211,0.12,0.357,0.2,0.444,0.247c0.763,0.899,3.777,0.598,11.811-0.686
			c2.276-0.364,4.427-0.708,5.716-0.818l0.067-0.006l0.063-0.02c0.604-0.193,1.344,0.003,2.131,0.21
			c1.183,0.312,2.63,0.635,3.93-0.394c0.348,0.046,6.124,0.815,6.124,0.815c4.196,0.605,8.535,1.227,13.043,1.297
			c2.032,1.143,4.607,1.383,6.899,1.583c1.023,0.089,1.973,0.189,2.814,0.347c-0.002,0.159-0.004,0.354-0.004,0.354l1.02,0.092
			c0.469,0.058,1.102,0.082,1.573-0.257c2.193,0.833,4.944,1.313,7.619,1.77c1.759,0.299,3.419,0.584,4.844,0.955
			c1.973,1.824,4.276,2.028,6.516,2.197c2.045,0.155,3.981,0.3,5.701,1.646l0.279,0.219l0.322-0.147
			c1.184-0.542,1.642-0.072,2.395,0.707c0.688,0.71,1.554,1.553,3.063,1.338c1.163,1.327,2.582,0.787,3.539,0.402
			c0.486-0.195,0.993-0.397,1.216-0.27c0.102,0.057,0.354,0.297,0.519,1.302l0.069,0.408l0.408,0.073
			c0.289,0.053,0.668,0.249,1.037,0.439c0.723,0.373,1.543,0.796,2.13,0.223l0.343-0.334c0,0-0.296-0.456-0.309-0.474
			c0.114-0.11,0.361-0.35,0.576-0.56l-0.016,0.059c-0.144,0.642-0.074,1.146,0.207,1.536c0.466,0.649,1.354,0.742,2.209,0.832
			c1.415,0.147,2.291,0.307,2.388,1.628l0.119,1.608c0,0,1.004-1.432,1.013-1.45c0.025-0.025,0.135-0.049,0.32-0.06
			c0.112,0.121,0.223,0.244,0.223,0.244s0.222,0.226,0.222,0.228c0,0.004-0.076,0.503-0.076,0.503l0.439,0.245l3.158,1.306
			c2.227,0.981,4.348,1.886,6.769,2.105c0.332,0.806,1.026,1.14,1.573,1.372c0.514,0.218,0.809,0.355,0.928,0.683l0.155,0.427
			l0.453-0.044c1.029-0.102,1.763,0.524,2.758,1.718l0.271,0.321l0.389-0.15c0.354-0.136,1.049,0.392,1.554,0.777
			c0.677,0.516,1.316,1,1.945,0.677c0.147-0.077,0.262-0.185,0.35-0.316l0.483,0.292c1.641,0.985,3.661,2.422,6,4.271l0.676,0.535
			l0.036-0.125l2.341,1.49c1.289,0.788,2.503,1.532,3.591,2.549l0.114,0.107l0.151,0.036c1.8,0.426,2.8,1.083,2.982,1.951
			l0.063,0.306l0.215,0.081l1.278,0.519C185.507,80.227,186.112,80.42,186.51,81.159z M196.795,85.917l-1.798-0.024l-0.01,0.587
			l-0.012,1.053l1.8,0.028L196.795,85.917z M273.458,149.621c0.139,0.28,0.464,0.934,1.512,0.61l0.407-0.124l0.026-1.797
			l-1.842-0.031l-0.279,1.107C273.354,149.417,273.384,149.468,273.458,149.621z M178.822,99.889
			c-1.096-1.65-2.539-2.729-3.948-3.759c-1.243-0.913-2.412-1.787-3.301-3.011c-0.002-0.015-0.006-0.038-0.006-0.052
			c0-0.169,0.118-0.251,0.57-0.468c0.435-0.208,1.03-0.491,1.326-1.155l0.326-0.737l-0.802-0.084
			c-3.463-0.359-6.727-0.702-9.399-2.681l-0.098-0.073l-0.12-0.027c-1.309-0.303-1.479-1.097-1.675-2.018
			c-0.134-0.649-0.292-1.384-0.949-1.78c-0.47-0.285-1.159-0.284-2.032-0.097c-0.738-1.263-1.951-1.773-3.062-2.189
			c-1.309-0.492-2.059-0.82-2.223-1.884l-0.153-1.01l-0.793,0.643c-0.666,0.539-0.797,0.394-1.353-0.212
			c-0.204-0.219-0.438-0.468-0.73-0.674c0.004,0,0.055,0.01,0.055,0.01l0.215-1.149c-0.025-0.007-0.055-0.005-0.08-0.011
			l0.001-0.005l-1.553-0.332c-0.961-0.253-2.049-0.532-3.333-0.367c-0.721-0.066-1.272-0.505-1.855-0.973
			c-0.813-0.651-1.811-1.412-3.231-0.765c-0.004-0.003-0.197-0.188-0.271-0.259c0.795-1.341,2.211-2.091,3.595-2.804
			c1.314-0.677,2.678-1.377,3.428-2.6l-0.869-0.761c-1.01,0.834-2.139,1.39-3.333,1.978c-1.145,0.562-2.325,1.143-3.444,1.999
			c-0.139,0.071-0.415-0.021-0.843-0.186c-0.433-0.167-0.973-0.372-1.502-0.133c-0.209,0.093-0.378,0.257-0.53,0.464
			c-0.173-0.114-0.341-0.252-0.518-0.412c0,0-0.485-0.37-0.686-0.521c-0.581-1.136-1.82-1.293-2.938-1.397
			c-1.501-0.14-2.793-0.26-3.284-2.189l-0.03-0.12l-0.074-0.097c-0.36-0.46-0.885-0.649-1.447-0.52
			c-0.539,0.125-0.974,0.575-1.245,1.086c-0.058,0.005-0.104,0.01-0.136,0.009c0.043-0.258,0.337-0.764,0.514-0.923l0.837-0.771
			l-1.063-0.226l-1.078-0.225c-1.306-0.294-2.547-0.537-3.889,0.112c-0.08-0.031-0.169-0.063-0.169-0.063
			c-0.668-0.238-0.904-0.369-0.904-0.644c0-0.102,0.029-0.222,0.085-0.378l0.16-0.462l-0.426-0.24
			c-0.854-0.478-1.825-0.446-2.685-0.417c-1.378,0.046-1.514-0.062-1.552-0.58l-0.041-0.632l-0.624,0.089
			c-1.231,0.175-2.419-0.332-3.572-0.825c-1.441-0.616-2.931-1.254-4.443-0.474l0.091-0.038c-0.726,0.232-0.857,0.019-1.242-0.827
			c-0.199-0.438-0.421-0.934-0.836-1.288l-0.315-0.267c0,0-1.48,0.838-1.924,1.091c-0.64-0.492-1.336-0.886-2.023-1.246l-1.659-0.93
			l-0.276,0.066c-0.88,0.303-1.857-0.067-2.89-0.457c-0.947-0.358-1.996-0.694-3.061-0.559c0-0.084,0.001-0.193,0.001-0.193
			s-3.201-0.044-3.434-0.047c-1.773-1.106-3.613-1.15-5.394-1.168c-1.919-0.021-3.733-0.039-5.29-1.485l-0.566-0.524l-0.354,0.684
			c-0.175,0.341-0.397,0.373-1.035,0.387l-0.789,0.062l0.034-0.003c-0.766,0.133-1.394-0.072-1.865-0.611
			c-0.558-0.636-0.799-1.685-0.562-2.441l0.587-1.856l-1.513,1.224c-0.55,0.446-0.738,1.054-0.906,1.59
			c-0.197,0.638-0.354,1.01-0.832,1.241c-0.291,0.01-5.304,0.184-5.304,0.184c-5.857,0.167-11.913,0.338-17.879,1.717l-0.181,0.043
			l-0.123,0.14c-1.035,1.168-1.388,2.146-1.388,2.936c0,0.641,0.232,1.157,0.517,1.551l0.173,0.237l12.37,0.159
			c1.268,0.189,2.48,0.131,3.651,0.076c1.834-0.086,3.436-0.133,5.041,0.831c-1.593,4.951-3.521,9.277-5.6,12.514l-0.106,0.162
			l0.014,0.191c0.007,0.123,0.01,0.247,0.01,0.37c0,2.209-1.167,4.342-2.301,6.407c-0.849,1.55-1.728,3.153-2.087,4.766
			c-0.338,0.961-0.557,2.05-0.766,3.104c-0.383,1.93-0.748,3.753-1.904,5.254l-0.201,0.261l0.12,0.307
			c0.075,0.197,0.108,0.422,0.108,0.661c0,1.084-0.668,2.488-1.028,3.234l-0.236,0.515c-0.026,0.088-0.428,1.446-0.428,1.446
			c-0.328,1.037-0.705,2.216-0.705,3.318c0,0.846,0.222,1.646,0.857,2.298l0.385,0.397l0.418-0.369
			c1.044-0.927,1.438-2.253,1.819-3.535c0.322-1.094,0.628-2.126,1.305-2.912l0.228-0.269l-0.128-0.329
			c-0.124-0.315-0.178-0.606-0.178-0.882c0-0.79,0.446-1.45,0.942-2.184c0.476-0.708,0.967-1.431,0.967-2.277
			c0-0.115-0.024-0.234-0.042-0.352c0.089-0.981,0.539-1.971,0.977-2.927c0.447-0.978,0.88-1.987,0.944-2.995
			c0.663-0.955,0.973-2.091,1.251-3.204c0.247-0.991,0.483-1.926,0.957-2.581l0.07-0.097l0.025-0.116
			c0.568-2.535,1.551-4.931,2.496-7.248c0.961-2.345,1.947-4.768,2.541-7.374c0.224-0.478,0.329-1.035,0.422-1.577
			c0.223-1.281,0.4-1.715,0.996-1.76l0.497-0.039l0.055-0.678c0.011-0.085,0.022-0.195,0.022-0.318c0-0.181-0.035-0.39-0.127-0.598
			c0.24-0.234,0.379-0.371,0.539-0.525c8.515,0.6,17.563,2.804,25.554,4.759l0.38,0.094c3.778,0.825,7.584,1.923,11.263,2.988
			c3.741,1.081,7.279,2.09,10.792,2.848c-0.002,0.146-0.004,0.337-0.004,0.337s2.77,0.53,3.009,0.575
			c1.089,0.96,2.399,1.369,3.673,1.75c1.111,0.331,2.168,0.666,2.994,1.349c-0.683,0.434-1.118,1.176-1.328,1.935
			c-2.39,0.763-5.553,2.396-7.544,4.497c-0.139,0.189-0.429,0.17-0.832,0.13c-0.598-0.059-1.844-0.18-2.006,1.269l-0.015,0.126
			c-0.793-0.008-1.126,0.617-1.321,0.998c-0.104,0.202-0.183,0.321-0.267,0.408c-0.366-0.213-0.763-0.242-1.038-0.226l-0.522,0.018
			l-0.196,0.222c-1.492,1.958-3.895,3.197-6.219,4.395c-2.432,1.251-4.923,2.559-6.48,4.701c-3.746,1.143-6.571,3.101-9.289,5.006
			c-2.099,1.469-4.271,2.988-6.893,4.154l0.308,1.117c2.546-0.304,5.988-2.23,7.513-4.206l0.017-0.021c0,0,0.057-0.095,0.068-0.112
			c0.054,0.029,0.106,0.06,0.106,0.06l1.24,0.435l0.071-0.268c2.057-1.86,3.746-3.116,6.287-4.034l0.083-0.028l0.074-0.055
			c2.76-2.104,5.648-3.804,8.447-5.45c3.185-1.874,6.192-3.644,8.975-5.938l0.752-0.62l-0.321-0.132
			c1.057-0.239,2.223-0.891,3.28-1.491c0.764-0.428,1.908-1.077,2.225-1.012c0,0,0.106-0.223,0.208-0.432
			c1.515-0.429,2.605-1.353,3.644-2.271c0.087-0.077,0.172-0.142,0.26-0.218c0.011-0.002,0.021-0.007,0.028-0.011l0.347-0.103
			c0,0,0.024-0.13,0.041-0.235c0.588-0.499,1.186-0.955,1.868-1.215c0,0,0.402-0.153,0.63-0.242c0.324,0.07,1.254,0.265,1.254,0.265
			c1.595,0.275,3.574,0.617,4.601,2.194l0.477,0.739c0,0,0.558-0.816,0.611-0.891c0.519,0.051,0.874,0.186,1.12,0.522l0.215,0.293
			l0.362-0.061c1.098-0.192,1.896,0.247,2.822,0.755c0.843,0.465,1.796,0.979,3,0.913c2.301,1.942,5.429,3.21,7.962,4.099
			c0.119,0.109,0.299,0.278,0.299,0.278c0.277,0.246,0.661,0.583,0.661,0.79l-0.007,0.702l0.688-0.116
			c1.437-0.242,3.144,1.209,4.639,2.584l0.069,0.063l0.081,0.04c0.547,0.252,1.157,0.336,1.748,0.418
			c1.063,0.147,1.704,0.301,2.031,0.946c-0.087,0.111-0.161,0.181-0.195,0.189c-0.11,0.026-0.396-0.172-0.587-0.304
			c-0.398-0.273-0.893-0.615-1.475-0.419c-0.511,0.171-0.797,0.688-0.978,1.16c-0.502,0.166-11.503,3.828-11.503,3.828
			c-17.125,5.636-33.327,10.982-49.537,20.005h16.804c0.984-0.458,1.987-0.695,3.18-0.439l0.27,0.059l0.218-0.174
			c1.18-0.946,2.542-1.473,3.986-2.034c1.527-0.592,3.091-1.232,4.449-2.378c0.32,0.329,1.474,1.514,1.474,1.514l0.227-1.069
			c0.274-1.29,1.083-1.448,2.489-1.62c1.055-0.131,2.237-0.286,3.021-1.285c0.371-0.297,0.601-0.215,1.191,0.079
			c0.393,0.194,0.837,0.417,1.381,0.425l0.237,0.002l0.559-0.525c0.434-0.402,0.856-0.847,1.167-1.409
			c1.545-0.313,3.123-1.137,4.655-1.951c2.044-1.088,3.974-2.116,5.348-1.636l0.614-0.961c0,0-0.279-0.287-0.559-0.572
			c0.103,0,0.23,0.004,0.397,0.016l1.112-0.015l0.028-0.061c0.769-0.427,1.467-0.634,2.141-0.833
			c1.118-0.334,2.279-0.705,3.516-2.021c1.518-0.064,2.619-0.8,3.501-1.414c0.485-0.336,0.906-0.626,1.263-0.712
			c0.042,0.001,4.163-0.4,4.163-0.4l0.567-0.056l-0.037-0.564c-0.003-0.056-0.006-0.106-0.006-0.154c0-0.548,0.26-0.665,1.406-0.771
			c0.395-0.036,0.786-0.099,1.158-0.212c0.154,0.164,0.306,0.328,0.306,0.328c0.174,0.157,0.377,0.351,0.377,0.434
			c0,0.002,0,0.007-0.001,0.009l-0.139,0.54l0.531,0.166c1.973,0.62,3.763,2.046,5.492,3.428l2.891,2.162l0.288-0.178
			c0.271-0.131,0.4-0.149,0.449-0.15c0.019,0.043,0.142,0.341,0.142,0.341c0.153,0.454,0.438,1.296,1.482,1.309l0.636,0.008
			l-0.046-0.635C182.045,102.419,181.382,100.769,178.822,99.889z M86.402,148.691c-2.684,0.209-5.217,0.404-7.599-0.605
			l-0.355-0.15l-0.277,0.27c-0.305,0.291-0.631,0.398-1.006,0.521c-0.419,0.138-0.913,0.315-1.336,0.767
			c-1.348-1.352-2.844-0.789-4.076-0.318c-1.294,0.498-2.13,0.761-2.982-0.069l-0.498,0.157l-0.493,0.309
			c0.098,1.254,1.011,1.445,1.557,1.557c0.497,0.107,0.674,0.16,0.781,0.498l0.156,0.501l0.445-0.093l1.939-0.38
			c1.105-0.282,2.244-0.576,2.841-0.112l0.227,0.175l0.276-0.07c2.168-0.555,4.559-0.289,7.093-0.007
			c2.504,0.279,5.09,0.551,7.621,0.041v-3.129C89.274,148.478,87.824,148.58,86.402,148.691z M278.851,151.044
			c-0.123,0-0.295-0.186-0.479-0.381c0,0-0.131-0.113-0.216-0.184c0.001,0,1.037-0.995,1.037-0.995l-3.572-0.069l-0.012,0.587
			l-0.026,1.837l0.585,0.012c0.226,0.006,0.581,0.173,0.892,0.318c0.606,0.283,1.73,0.813,2.293-0.266l0.441-0.84L278.851,151.044z
			 M274.301,150.957l-0.239,1.125l0.779,0.326l0.647-0.949l-0.479-0.49L274.301,150.957z M71.895,122.083
			c2.353,1.329,3.887,2.636,4.55,3.89l1.072,2.025l0.053-4.002l-0.06-0.123c-0.793-1.641-2.723-2.514-4.128-3.152
			c0,0-0.162-0.074-0.26-0.121c-1.578-2.158-4.871-3.678-7.088-4.683l-0.116-0.052h-0.148c-0.69-0.008-1.495,0.048-2.201,0.355
			c-1.03-1.047-2.362-1.098-3.671-1.096c-0.983,0-1.997,0.002-2.943-0.426l-0.145-0.066l-0.16,0.016
			c-0.7,0.07-1.229,0.406-1.694,0.701c-0.636,0.406-1.057,0.67-1.817,0.384l-0.141-0.054l-0.149,0.021
			c-0.945,0.132-1.322,0.602-1.471,0.969c-0.386,0.959,0.358,2.219,1.051,3.107l0.254,0.324l0.393-0.129
			c3.457-1.15,5.344-1.004,8.382-0.644l0.053,0.007l0.053-0.004c2.622-0.166,4.755,0.68,7.009,1.574
			C69.633,121.327,70.734,121.753,71.895,122.083z M272.763,149.435l-0.127-0.046c-0.558-0.201-0.95,0.126-1.222,0.419
			c-1.177-1.423-2.656-0.753-3.672-0.278c-0.89,0.413-1.347,0.574-1.673,0.306c-0.001-0.003-0.001-0.003-0.003-0.003l-0.519,0.622
			c-0.013-0.419-0.161-0.918-0.386-1.504l-0.106-0.274l-2.64-0.715l-0.207,0.452c-0.615,1.357-1.627,1.223-3.364,0.863
			c-1.173-0.24-2.478-0.47-3.5,0.236c-0.22,0.023-1.68,0.179-1.68,0.179c-1.897,0.265-3.179,0.358-4.02-0.62
			c-0.064-0.194-0.173-0.379-0.377-0.563l-0.063-0.059c0,0-0.371,0.271-0.652,0.469c-0.98,0.028-1.992,0.156-2.98,0.3
			c-2.331,0.335-4.53-0.054-6.215-1.128l-0.886-0.563l-0.018,1.051c-0.001,0.095-0.022,0.123-0.148,0.228
			c-0.092,0.013-0.179,0.024-0.179,0.024c-2.783,0.388-5.403,0.755-6.526-1.738l-1.109,0.345c0,0,0.048,0.102,0.062,0.131
			l-0.019,0.005c0.022,0.047,0.054,0.07,0.074,0.116c0.129,0.279,0.351,0.751,0.351,0.751c0.221,0.344,0.306,0.51,0.306,0.611
			c0,0.017-0.024,0.025-0.025,0.035c-0.23-0.025-0.468-0.045-0.468-0.045c-0.685-0.035-0.92-0.075-1.089-0.424l-0.152-0.321
			l-0.418-0.017l-1.454-0.055c-1.184-0.109-2.517-0.214-3.866,0.741c-12.533,0.106-23.313-0.013-33.734-0.124l-4.494-0.047v3.28
			c1.814-0.224,3.569-0.222,5.298,0.659l0.813,0.415c0,0,0.021-0.463,0.025-0.709c3.671-0.38,7.278-0.292,10.771-0.19l5.89,0.096
			l0.166-0.22c0.225-0.271,0.251-0.298,0.819,0.146c0.376,0.293,0.851,0.661,1.44,0.53c0.308-0.067,0.567-0.302,0.814-0.622
			c1.637,0.623,3.327,0.584,4.966,0.496c1.466-0.078,2.849-0.154,3.967,0.33l0.8,0.35c0,0,0.014-0.618,0.019-0.771
			c1.05-0.008,13.25-0.047,13.25-0.047l0.252-0.166c1.396-0.9,2.261-1.223,2.857-0.34l0.492,0.734l0.401-0.642l0.48-0.729
			c0.064-0.13,0.172-0.342,0.232-0.387c0.018,0.002,0.114,0.025,0.114,0.025c0.151,0.064,0.263,0.291,0.336,0.506
			c-0.014,0.014-0.042,0.039-0.042,0.039l0.105,0.345c0.013,0.028,0.029,0.028,0.042,0.058c0.023,0.227,0.095,1.068,0.095,1.068
			s0.347-0.368,0.591-0.62c0.111-0.009,0.377-0.025,0.377-0.025s0.07-0.379,0.076-0.438c0.001-0.001,0.001-0.001,0.004-0.003
			c0.025,0.025,0.057,0.064,0.057,0.064l0.824,0.834l0.282-0.224c2.376-1.003,6.783-1.657,9.613,0.515l0.729,0.561
			c0,0,0.319-1.448,0.419-1.906c2.794,0.617,5.214,0.75,7.933,0.373l0.384-0.054l0.101-0.372c0.123-0.451,0.306-0.555,0.368-0.586
			c0.369-0.203,1.082,0.008,1.65,0.176c0.738,0.223,1.439,0.434,1.9-0.068c0.113-0.121,0.181-0.26,0.224-0.42
			c0.144,0.09,0.29,0.16,0.438,0.205c0.701,0.373,1.534,0.622,2.695,0.647l0.313,0.007l0.18-0.258
			c0.278-0.404,0.425-0.43,0.426-0.43c0.098-0.008,0.42,0.328,0.557,0.472c0.37,0.39,0.835,0.879,1.491,0.894l0.36,0.008l0.171-0.32
			c0.076-0.146,0.118-0.289,0.118-0.435c0-0.077-0.039-0.157-0.065-0.236c0.46-0.221,1.7-0.81,1.7-0.81L272.763,149.435z"/>
		<path id="contour" fill="#FFFFFF" d="M185.564,180.381v-63.3H90.722v63.3H185.564z"/>
		<rect id="drapeau" x="92.088" y="118.447" fill="#004A99" width="92.109" height="60.545"/>
		<path id="etoiles" fill="#FFE143" d="M138.181,125.115l-0.715,2.218h-2.367l1.931,1.437l-0.75,2.273l1.9-1.397l1.905,1.397
			l-0.743-2.273l1.912-1.437h-2.377L138.181,125.115z M148.767,127.845l-0.709,2.223l-2.368-0.021l1.934,1.453l-0.744,2.279
			l1.9-1.41l1.91,1.396l-0.755-2.267l1.908-1.446l-2.375,0.006L148.767,127.845z M153.684,140.833l1.897-1.406l1.907,1.399
			l-0.751-2.275l1.904-1.441l-2.369,0.007l-0.715-2.215l-0.707,2.222l-2.363-0.014l1.929,1.447L153.684,140.833z M161.837,147.519
			l-2.374,0.006l-0.713-2.213l-0.706,2.221l-2.363-0.019l1.93,1.453l-0.741,2.278l1.899-1.406l1.904,1.396l-0.752-2.273
			L161.837,147.519z M157.124,157.703l-0.71-2.219l-0.711,2.221l-2.363-0.014l1.936,1.453l-0.744,2.275l1.896-1.405l1.902,1.396
			l-0.749-2.274l1.903-1.441L157.124,157.703z M148.755,165.685l-0.71-2.215l-0.711,2.223l-2.367-0.017l1.937,1.453l-0.744,2.28
			l1.9-1.406l1.906,1.396l-0.745-2.276l1.908-1.442L148.755,165.685z M138.858,168.623l-0.709-2.211l-0.71,2.22l-2.367-0.017
			l1.938,1.453l-0.747,2.275l1.898-1.405l1.913,1.398l-0.754-2.272l1.906-1.444L138.858,168.623z M125.605,133.762l1.907-1.395
			l1.9,1.407l-0.745-2.279l1.938-1.453l-2.366,0.022l-0.709-2.223l-0.713,2.212l-2.375-0.008l1.907,1.446L125.605,133.762z
			 M120.732,134.902l-0.711,2.215l-2.375-0.007l1.907,1.441l-0.75,2.275l1.907-1.399l1.898,1.406l-0.739-2.277l1.934-1.447
			l-2.367,0.014L120.732,134.902z M117.517,149.835l1.901,1.407l-0.741-2.277l1.933-1.453l-2.365,0.019l-0.71-2.221l-0.714,2.213
			l-2.373-0.006l1.907,1.439l-0.749,2.275L117.517,149.835z M120.589,157.705l-0.708-2.221l-0.713,2.219l-2.373-0.01l1.903,1.441
			l-0.749,2.273l1.912-1.396l1.899,1.405l-0.747-2.276l1.937-1.453L120.589,157.705z M128.964,165.693l-0.712-2.223l-0.71,2.215
			l-2.373-0.006l1.906,1.443l-0.75,2.273l1.907-1.398l1.9,1.408l-0.745-2.279l1.936-1.452L128.964,165.693z"/>
	</g>
</g>
<g>
	<g>
		<path fill="#006F91" d="M315.261,136.233h-11.182v10.37h12.462v3.116h-16.176v-28.766h15.535v3.116h-11.821v9.09h11.182V136.233z"
			/>
		<path fill="#006F91" d="M323.286,121.294c1.793-0.298,4.141-0.555,7.128-0.555c3.67,0,6.359,0.854,8.066,2.391
			c1.579,1.365,2.518,3.457,2.518,6.018c0,2.604-0.768,4.652-2.219,6.146c-1.964,2.091-5.164,3.158-8.792,3.158
			c-1.109,0-2.134-0.043-2.987-0.257v11.523h-3.714V121.294z M327,135.166c0.811,0.214,1.835,0.299,3.072,0.299
			c4.481,0,7.213-2.176,7.213-6.146c0-3.798-2.688-5.634-6.786-5.634c-1.621,0-2.859,0.128-3.499,0.299V135.166z"/>
		<path fill="#006F91" d="M362.599,120.954v28.766h-3.714v-28.766H362.599z"/>
		<path fill="#006F91" d="M371.007,149.719v-28.766h4.055l9.219,14.554c2.134,3.371,3.799,6.402,5.164,9.347l0.086-0.043
			c-0.342-3.841-0.427-7.341-0.427-11.821v-12.036h3.499v28.766h-3.756l-9.133-14.597c-2.006-3.2-3.927-6.486-5.378-9.602
			l-0.128,0.042c0.214,3.628,0.299,7.085,0.299,11.864v12.292H371.007z"/>
		<path fill="#006F91" d="M406.477,124.112h-8.749v-3.158h21.297v3.158h-8.792v25.607h-3.756V124.112z"/>
		<path fill="#006F91" d="M424.15,121.337c1.878-0.384,4.567-0.598,7.128-0.598c3.969,0,6.529,0.727,8.322,2.348
			c1.451,1.281,2.262,3.244,2.262,5.463c0,3.799-2.39,6.316-5.42,7.341v0.128c2.219,0.769,3.542,2.816,4.226,5.805
			c0.938,4.012,1.621,6.785,2.219,7.896h-3.841c-0.47-0.812-1.109-3.286-1.921-6.871c-0.854-3.97-2.39-5.463-5.762-5.591h-3.499
			v12.462h-3.714V121.337z M427.864,134.441h3.798c3.97,0,6.487-2.178,6.487-5.463c0-3.714-2.688-5.336-6.615-5.379
			c-1.792,0-3.073,0.172-3.67,0.342V134.441z"/>
		<path fill="#006F91" d="M453.9,140.671l-2.987,9.048h-3.841l9.773-28.766h4.48l9.816,28.766h-3.969l-3.073-9.048H453.9z
			 M463.331,137.769l-2.816-8.279c-0.64-1.878-1.067-3.586-1.494-5.25h-0.085c-0.427,1.707-0.896,3.457-1.451,5.207l-2.816,8.322
			H463.331z"/>
		<path fill="#006F91" d="M477.291,149.719v-28.766h4.055l9.219,14.554c2.134,3.371,3.799,6.402,5.164,9.347l0.086-0.043
			c-0.342-3.841-0.427-7.341-0.427-11.821v-12.036h3.499v28.766h-3.756l-9.133-14.597c-2.006-3.2-3.927-6.486-5.378-9.602
			l-0.128,0.042c0.214,3.628,0.299,7.085,0.299,11.864v12.292H477.291z"/>
		<path fill="#006F91" d="M522.194,136.233h-11.182v10.37h12.462v3.116h-16.176v-28.766h15.535v3.116h-11.821v9.09h11.182V136.233z"
			/>
		<path fill="#006F91" d="M536.365,124.112h-8.749v-3.158h21.297v3.158h-8.792v25.607h-3.756V124.112z"/>
	</g>
</g>
<g>
	<rect x="563.463" y="80.484" fill="#E8F1FA" width="64.887" height="64.887"/>
	<g>
		<rect x="584.563" y="80.484" fill="#006F91" width="22.688" height="21.349"/>
		<polygon fill="#006F91" points="584.563,60.338 607.25,60.338 607.25,36.786 542.203,36.786 542.203,101.833 584.563,101.833 
			584.563,80.484 		"/>
		<rect x="584.563" y="123.98" fill="#F39200" width="44.641" height="1.146"/>
		<polygon fill="#F39200" points="607.25,80.484 607.25,101.833 584.563,101.833 584.563,123.98 629.203,123.98 629.203,80.484 		
			"/>
	</g>
	<rect x="584.563" y="80.484" fill="#B70E0C" width="22.688" height="21.349"/>
	<rect x="584.563" y="60.338" fill="#CE3B49" width="22.688" height="20.146"/>
	<polygon fill="#D1E4F6" points="648.203,60.338 607.25,60.338 607.25,80.484 629.203,80.484 629.203,123.98 648.203,123.98 	"/>
</g>
</svg>
